# xmcd CD database file
#
# Track frame offsets:
#	150
#	27463
#	57005
#	78212
#	102211
#	120571
#	137045
#	164317
#	186203
#	203131
#	228103
#	251447
#	271021
#	298249
#	322674
#
# Disc length: 4555 seconds
#
# Revision: 0
# Processed by: cddbd v1.5PL3 Copyright (c) Steve Scherf et al.
# Submitted via: CDex 1.50
#
DISCID=c211c90f
DTITLE=Various Artist - Salsa Sam: Rueda 2002
DYEAR=1900
DGENRE=Salsa
TTITLE0=Polo Montanez - Un Monton De Estrellas
TTITLE1=Orquesta La Palabra - Lady
TTITLE2=Karamba - Salsa Con Candela
TTITLE3=Edwin Bonilla - Donde Estaras Metida
TTITLE4=Anthony Cruz - Me Tiene Loco
TTITLE5=Edwin Bonilla - Yo Soy La Candela
TTITLE6=Maraca - Descarga Total
TTITLE7=Gran Combo - Se Nos Perdo El Amor
TTITLE8=Kimo - Unknown 1
TTITLE9=Orquesta La Palabra - Careless Whispers
TTITLE10=Tabaco Y Ron - Sonea Mi Son
TTITLE11=Gran Combo - El Amor Es Ciego
TTITLE12=Wayne Gorbea - El Yo Yo (with Salsa Picante)
TTITLE13=Johnny Polanco - Guaguanco Con Rumba
TTITLE14=Sonores Del Barrio - Amazona
EXTD=
EXTT0=
EXTT1=
EXTT2=
EXTT3=
EXTT4=
EXTT5=
EXTT6=
EXTT7=
EXTT8=
EXTT9=
EXTT10=
EXTT11=
EXTT12=
EXTT13=
EXTT14=
PLAYORDER=
